<svg id="Layer_1" data-name="Layer 1" xmlns="http://www.w3.org/2000/svg" viewBox="0 0 800 269.67"><defs><style>.cls-1,.cls-2{fill:#a4a3b7;}.cls-1{fill-rule:evenodd;}.cls-3{fill:#6c8bc6;}</style></defs><path class="cls-1" d="M129.11,131.79l.7,10.17,8.07,1.41h1.4l18.6,22.8c-1.06,6.66-1.41,18.94-1.76,28.76-40.34,7-72.26,29.47-81.38,57.89,20.34-25.26,58.93-43.5,103.83-46,41.05-2.1,77.88,9.12,101.74,28.77-5.62-8.42-13.34-15.44-22.81-21.75l-5.61-15.44s-7.37-19.29-15.79-26.66c-8.06-25.26-17.89-26.66-17.89-26.66l-1.4-10.87-6.31-3.86c-1.06-11.93,3.15-15.79,3.15-15.79s4.91,2.81,10.88,15.79c0,0-3.86,11.22,9.47,15.08.7.35,20.35-10.52-12.63-50.16l7.72-2.46s0-15.78-22.1-15.08c1.4-13.33-5.26-17.19-10.53-17.19-2.8,0-13,0-13,14.73a36.79,36.79,0,0,0-25.6,3.16c6.31-32.28-12.63-25.26-12.63-25.26s0-16.49-34.38-15.08C93,21.64,47.73,22,47.73,22l1.75,2.1c-2.11-2.1-4.21-4.56-6-6.66a4.07,4.07,0,0,0-6,2.45l91.56,111.91Zm68.06,27.36,5.61,9.47,17.89,16.49,2.1,13a158,158,0,0,0-32.62-5.26c-2.81-3.16-5.61-6.67-8.42-10.17l-.35-1.76ZM108.06,93.9C91.58,74.61,75.44,55,60.35,37.42l5.27,1.41c17.89,15.43,42.44,50.86,42.44,50.86l.7,1.76Zm63.5,46s-5.62,11.57-9.82,18.94c-4.57-5.61-9.13-11.22-14-16.84V136.7l24.21-6.31ZM112.62,99.52c.35-.35,18.24-13.69,22.81-22.81,1.75-6,5.61-6.31,5.61-6.31s-3.16,4.56,2.45,7a12.82,12.82,0,0,1,10.18,6.31h3.86l.7,6.67c6,2.8,7,7,7,7l-3.15,2.46s-.71,9.47-8.77,15.08a22.31,22.31,0,0,0-10.18,9.47l-5.61.7s-1.4,1.06-2.46,1.76C127.71,117.76,120.34,108.64,112.62,99.52Z"/><path class="cls-1" d="M332.57,157.05h9.48v1.75c-.36,0-.71-.35-1.41-.35h-5.26v6.31h6.31v1.41h-6.31v7h5.26a2.14,2.14,0,0,0,1.41-.35v1.76h-9.13V157.75c-.35,0-.35-.35-.35-.7Z"/><path class="cls-1" d="M358.53,174.94c0-3.86.35-7,.35-9.47V156.7h.71a27.91,27.91,0,0,0,2.1,2.8A32.27,32.27,0,0,0,365.2,163a.34.34,0,0,0,.35.35l.35.35a54.46,54.46,0,0,0,4.56,4.56l2.11,2.11v-7.72a33.25,33.25,0,0,0-.36-5.61h1.41v18.59h0V176h-.35l-.35-.35c-.71-.7-1.41-1.75-2.46-2.81s-2.1-2.45-3.16-3.5L367,169l-.35-.35c-1.75-1.75-3.16-3.5-4.56-4.91l-2.1-2.1v14h-1.06c0-.7,0-.7-.35-.7Z"/><path class="cls-1" d="M390.1,157.05a9.82,9.82,0,0,1,2.11.35h9.47c1.4,0,2.11,0,2.11-.35v1.4h-5.62v16.84h-1.75V158.1h-3.16c-.7,0-1.05,0-1.4.35-.35,0-.7.35-1.05.35v-1.75Z"/><path class="cls-1" d="M419.92,157.05h9.47v1.75c-.35,0-.7-.35-1.4-.35h-5.26v6.31H429v1.41h-6.31v7H428c.7,0,1.05,0,1.4-.35v1.76h-9.12V157.75c-.35,0-.35-.35-.35-.7Z"/><path class="cls-1" d="M452.9,157.05a3.44,3.44,0,0,1,3.16,1.4,4,4,0,0,1,1.05,2.81h0a3.17,3.17,0,0,1-1.41,2.8,4,4,0,0,1-3.5,1.41s.35.7,1.4,2.45c1,1.41,2.81,3.51,5.61,6.67h-2.8a56.59,56.59,0,0,0-4.21-6h0v-3.5h0c.7-.36,1.4-.36,2.1-1.06a3.4,3.4,0,0,0,0-4.91l-2.1-1.05h0v-1ZM451.49,169c-.35-.35-.35-.7-.7-1.05a4.83,4.83,0,0,1-1.05-1.4h-.35v-.35h-1.05v8.77h-2.11V156.7h5.62v.7H449v7.36h3.16V169Z"/><path class="cls-1" d="M475.35,157.05a6.13,6.13,0,0,1,1.75.35h9.47c1.41,0,2.11,0,2.11-.35v1.4h-6v16.84h-2.11V158.1h-3.16a2.1,2.1,0,0,0-1.4.35c-.35,0-.7.35-1.05.35v-1.75Z"/><path class="cls-1" d="M512.88,157.75c0-.35.36-.35.36-.7h.35a151.52,151.52,0,0,0,7.71,17.89h-3.86c0-.35-.35-.7-.35-1.05s-.35-.71-.35-1.41c0-.35,0-.35-.35-.7,0-.35-.35-.35-.35-.7a6.48,6.48,0,0,1-.7-2.46,2.71,2.71,0,0,1-.35-1.05h-3.16v-1.4h2.81c-1-2.46-1.76-4.21-2.11-4.91a2.68,2.68,0,0,1-.35-1.41v-.35h0v-1.75Zm-7.71,17.19c.35-.35.35-1.05.7-1.41s.35-1.05.7-1.4c1.75-3.51,3.86-8.42,6-14v2.46h0v.35h0c0,.35,0,.35-.35,1.05a21.81,21.81,0,0,0-1.75,4.91h2.81v1.4h-2.81l-1.05,2.11a40.28,40.28,0,0,1-1.76,4.56h-2.45Z"/><path class="cls-1" d="M538.14,157.05h1.41v18.24h-1.76V159.15a7.5,7.5,0,0,0,.35-2.1Z"/><path class="cls-1" d="M557.44,174.94c0-3.86.35-7,.35-9.47V156.7h.35a27.91,27.91,0,0,0,2.1,2.8,32.27,32.27,0,0,0,3.51,3.51l.35.35.35.35a56,56,0,0,0,4.56,4.56l2.11,2.11v-7.72a34.19,34.19,0,0,0-.35-5.61h1.4c0,2.45-.35,4.56-.35,6.66v11.93h0V176h-.7l-.35-.35a15.77,15.77,0,0,0-2.46-2.81c-1-1.05-2.1-2.45-3.16-3.5a35.4,35.4,0,0,0-.7-.71,64.68,64.68,0,0,0-4.56-4.91l-2.1-2.1v14h-1.41c1.41-.7,1.41-.7,1.06-.7Z"/><path class="cls-1" d="M599.53,174.94h-.35a4.68,4.68,0,0,0-1-2.46,35.56,35.56,0,0,1-1.4-3.51.35.35,0,0,0-.36-.35c0-.35-.35-.35-.35-.7a39.54,39.54,0,0,0-2.1-3.86,18.18,18.18,0,0,1-1-1.75V162h0v1.75a8.84,8.84,0,0,0-.35,3.51c0,1.05-.36,2.11-.36,3.51s-.35,2.8-.35,4.56h-2.1a1.29,1.29,0,0,1,.35-1c0-.35.35-.71.35-1.41a62.33,62.33,0,0,0,1.4-10.52c.35-3.16.35-4.91.35-4.91h0v-.35h.36a.34.34,0,0,0,.35.35c2.1,4.56,3.86,7.72,5.26,10.52,0,.35.35.35.35.7s.35.35.35.71a1.29,1.29,0,0,1,.35,1,1.08,1.08,0,0,1,.35.7q3.16-5.27,5.26-9.47c.35-.35.35-1.05.71-1.41a2.65,2.65,0,0,0,.7-1.4c0-.35.35-.35.35-.7s.35-.35.35-.7v-.35h0v.35q1.05,10,2.1,17.89h-2.45a9.75,9.75,0,0,0-.35-3.16,9.78,9.78,0,0,0-.35-3.16,23.27,23.27,0,0,1-.35-4.56,7.44,7.44,0,0,0-.36-2.1.34.34,0,0,0-.35-.35h0c-1.75,3.16-3.5,6.31-4.56,8.77A10.24,10.24,0,0,1,599.53,174.94Z"/><path class="cls-1" d="M626.54,157.05H636v1.75c-.35,0-.7-.35-1.4-.35h-5.26v6.31h6.31v1.41h-6.31v7h5.26a2.1,2.1,0,0,0,1.4-.35v1.76h-9.12V157.75c-.35,0-.35-.35-.35-.7Z"/><path class="cls-1" d="M652.85,174.94c0-3.86.35-7,.35-9.47V156.7h.71a27.91,27.91,0,0,0,2.1,2.8,32.27,32.27,0,0,0,3.51,3.51.34.34,0,0,0,.35.35l.35.35a54.46,54.46,0,0,0,4.56,4.56c1.4,1.41,2.11,2.11,2.11,2.11v-7.72a33.25,33.25,0,0,0-.36-5.61h1.41v18.59h0V176h-.35l-.35-.35a15.77,15.77,0,0,0-2.46-2.81c-1-1.05-2.1-2.45-3.16-3.5l-.35-.36-.35-.35c-1.75-1.75-3.16-3.5-4.56-4.91l-2.1-2.1v14H653.2c0-.7-.35-.7-.35-.7Z"/><path class="cls-1" d="M684.43,157.05a9.79,9.79,0,0,1,2.1.35H696c1.4,0,2.11,0,2.11-.35v1.4h-5.62v16.84h-2.1V158.1h-3.16c-.7,0-1.05,0-1.4.35-.7,0-.7.35-1.05.35v-1.75Z"/><path class="cls-2" d="M265.57,107.94h7.72v13.33c0,3.15,0,4.91.35,5.61.35,1.05.7,1.75,1.75,2.1s3.16.35,6.67.35c2.81,0,4.56,0,5.61-.35s1.76-.35,2.11-1c.35-.35.35-.7.7-1.4a19.06,19.06,0,0,0,.35-2.81V107.94h7.72v13.33c0,4.56-.35,7.71-.35,9.12a6.9,6.9,0,0,1-3.16,5.26,11.87,11.87,0,0,1-4.21,1.4,55,55,0,0,1-8.77.35,38.51,38.51,0,0,1-7-.35,13.17,13.17,0,0,1-4.21-.7c-2.8-.7-4.21-2.46-4.91-5.61,0-1.06-.35-2.11-.35-3.16V107.94Z"/><path class="cls-2" d="M302.05,107.94h13.69l13.33,21.39h.7l-.35-21.39h7.71V136.7H323.8l-13.33-21.4h-.7v21.4h-7.72Z"/><path class="cls-2" d="M341,107.94h7.72v10.52h4.21l10.17-10.52H375l-15.08,14,15.78,14.73H364.15l-11.23-11.22h-4.21v10.87H341Z"/><path class="cls-2" d="M376.77,107.94h13.69l13.33,21.39h.7l-.35-21.39h7.71V136.7H398.52l-13.33-21.4h-.7v21.4h-7.72Z"/><path class="cls-2" d="M432.55,107.58c5.61,0,9.12,0,11.23.36a6.33,6.33,0,0,1,5.61,4.91,51.56,51.56,0,0,1,.7,9.47,51.56,51.56,0,0,1-.7,9.47c-.7,2.81-2.46,4.21-5.61,4.91a89.91,89.91,0,0,1-11.23.35c-5.61,0-9.47,0-11.22-.35a6.34,6.34,0,0,1-5.62-4.91A56.33,56.33,0,0,1,415,122a58.06,58.06,0,0,1,.7-9.47c.7-2.81,2.46-4.21,5.62-4.92Zm0,7.37c-4.21,0-6.66,0-7.37.35-1.05.35-1.75,1-1.75,1.76s-.35,2.8-.35,6a11,11,0,0,0,.35,3.86,3,3,0,0,0,2.81,2.45c1.05,0,3.51.35,6.66.35s5.26,0,6.32-.35a5.06,5.06,0,0,0,2.45-.7,7.65,7.65,0,0,0,1.05-1.75c0-.7.36-2.11.36-3.86a15.41,15.41,0,0,0-.36-4.56c-.35-1-.35-1.75-.7-2.11a2.12,2.12,0,0,0-2.1-1C438.52,115,436.41,115,432.55,115Z"/><path class="cls-2" d="M450.79,107.94h7.72l6.67,21.39h1.4l5.61-21.39h9.47l5.62,21.39h1.4l6.66-21.39h8.07l-9.82,28.76H481.66l-5.26-21-4.91,21H459.56Z"/><path class="cls-2" d="M505.52,107.94H519.2l13.33,21.39h.7l-.35-21.39h7.72V136.7H527.27l-13.33-21.4h-.7v21.4h-7.72Z"/><path class="cls-3" d="M542,107.94h7.72l6.66,21.39h1.41l5.61-21.39h9.47l5.61,21.39h1.41l6.66-21.39h8.07L584.8,136.7H572.87l-5.26-21-4.91,21H550.77Z"/><path class="cls-3" d="M613.21,107.58c5.62,0,9.12,0,11.23.36a6.33,6.33,0,0,1,5.61,4.91,51.56,51.56,0,0,1,.7,9.47,51.56,51.56,0,0,1-.7,9.47c-.7,2.81-2.45,4.21-5.61,4.91a89.91,89.91,0,0,1-11.23.35c-5.61,0-9.47,0-11.22-.35a6.35,6.35,0,0,1-5.62-4.91,56.33,56.33,0,0,1-.7-9.82,58.06,58.06,0,0,1,.7-9.47c.71-2.81,2.46-4.21,5.62-4.92Zm0,7.37c-4.21,0-6.66,0-7.36.35-1.06.35-1.76,1-1.76,1.76s-.35,2.8-.35,6a11,11,0,0,0,.35,3.86,3,3,0,0,0,2.81,2.45c1.05,0,3.51.35,6.66.35s5.27,0,6.32-.35a5.06,5.06,0,0,0,2.45-.7,7.64,7.64,0,0,0,1.06-1.75c0-.7.35-2.11.35-3.86a15.83,15.83,0,0,0-.35-4.56c-.35-1-.35-1.75-.71-2.11a2.12,2.12,0,0,0-2.1-1C619.18,115,617.07,115,613.21,115Z"/><path class="cls-3" d="M633.91,136.7V107.94h26.31a3.82,3.82,0,0,1,2.46,1,4.35,4.35,0,0,1,2.1,2.8,20,20,0,0,1,.7,5.62,15.91,15.91,0,0,1-.35,4.56,5.64,5.64,0,0,1-1.4,2.45,6.64,6.64,0,0,1-3.16,1.41,4.69,4.69,0,0,1,3.51,1.4,3.75,3.75,0,0,1,.7,2.1v7.72h-7.72v-4.91a1.82,1.82,0,0,0-.7-1.4c-.35-.35-.7-.7-1.05-.7h-14v7.36h-7.37Zm7.72-14.38H656a1.29,1.29,0,0,0,1-.35c.35-.35.7-.7.7-1.06a12.06,12.06,0,0,0,.36-2.1c0-1,0-1.75-.36-2.1,0-.36-.35-.71-.7-1.06-.35,0-.7-.35-1-.35H642v7Z"/><path class="cls-3" d="M667.94,107.94H676v21.39H693.9v7.37H667.59V107.94Z"/><path class="cls-3" d="M696,136.7V107.94h24.56c1.05,0,2.1.35,3.15.35a6.41,6.41,0,0,1,4.92,4.91c.35,1,.35,2.1.7,3.15s0,2.81,0,5.27v6a10.42,10.42,0,0,1-.7,3.51,6.06,6.06,0,0,1-4.56,4.56c-1.06.35-2.11.35-3.51.7H696Zm7.72-7.37h10.87c2.11,0,3.51,0,4.21-.35s1.76-.35,2.11-.7a5.7,5.7,0,0,0,1.05-2.1,12.07,12.07,0,0,0,.35-3.86,10.92,10.92,0,0,0-.35-3.86,3,3,0,0,0-.7-2.11,7.65,7.65,0,0,0-1.75-1c-.71,0-2.46-.35-4.92-.35H704.07v14.38Z"/><path class="cls-3" d="M731.78,127.23h7.37a4.58,4.58,0,0,0,.7,2.81c.35.35.7.35,1.4.35h11.58c.7,0,1,0,1.4-.35.71-.36.71-1.06.71-2.11a2.68,2.68,0,0,0-.71-1.75c-.35-.35-1.05-.35-2.45-.35a49.06,49.06,0,0,1-6-.35c-3.15,0-5.26-.36-6.31-.36a13.12,13.12,0,0,1-4.21-.7,4.05,4.05,0,0,1-2.45-1.75c-1.06-1.4-1.41-3.16-1.41-6.32s.7-5.61,1.76-7a5.9,5.9,0,0,1,3.85-2.11c1.76-.35,5.27-.35,10.53-.35,3.86,0,6.31,0,7.72.35a8,8,0,0,1,4.91,2.11,9.9,9.9,0,0,1,1.4,5.61v1.4h-7.37V114.6a.75.75,0,0,0-.7-.7,2.62,2.62,0,0,0-1.75-.35h-5.26c-3.16,0-5.27,0-6,.35a1.62,1.62,0,0,0-1,1.75c0,1.06.35,1.76,1,1.76.7.35,3.16.35,8.07.35,4.21,0,7,.35,8.07.35a16.41,16.41,0,0,1,3.16,1,4.69,4.69,0,0,1,2.1,2.46,15.55,15.55,0,0,1,.7,4.56,13,13,0,0,1-1,6,3.19,3.19,0,0,1-2.1,2.11A22.25,22.25,0,0,1,756,135.3c-1.76,0-4.91.35-9.47.35a52.34,52.34,0,0,1-8.42-.35,36,36,0,0,1-4.21-1.05,4.78,4.78,0,0,1-2.11-2.46,13.78,13.78,0,0,1-.7-4.56h.7Z"/></svg>