<svg width="41" height="41" viewBox="0 0 41 41" fill="none" xmlns="http://www.w3.org/2000/svg">
<path fill-rule="evenodd" clip-rule="evenodd" d="M0.529297 8.27161C0.529297 6.12744 1.38106 4.07109 2.89722 2.55494C4.41338 1.03878 6.46973 0.187012 8.6139 0.187012H32.8677C35.0119 0.187012 37.0682 1.03878 38.5844 2.55494C40.1005 4.07109 40.9523 6.12744 40.9523 8.27161V32.5254C40.9523 34.6696 40.1005 36.7259 38.5844 38.2421C37.0682 39.7582 35.0119 40.61 32.8677 40.61H8.6139C6.46973 40.61 4.41338 39.7582 2.89722 38.2421C1.38106 36.7259 0.529297 34.6696 0.529297 32.5254V8.27161ZM8.6139 4.22931C7.54181 4.22931 6.51364 4.6552 5.75556 5.41327C4.99748 6.17135 4.5716 7.19953 4.5716 8.27161V32.5254C4.5716 33.5975 4.99748 34.6257 5.75556 35.3838C6.51364 36.1418 7.54181 36.5677 8.6139 36.5677H32.8677C33.9398 36.5677 34.968 36.1418 35.726 35.3838C36.4841 34.6257 36.91 33.5975 36.91 32.5254V8.27161C36.91 7.19953 36.4841 6.17135 35.726 5.41327C34.968 4.6552 33.9398 4.22931 32.8677 4.22931H8.6139ZM20.7408 14.3351C19.1327 14.3351 17.5904 14.9739 16.4533 16.111C15.3162 17.2481 14.6773 18.7904 14.6773 20.3985C14.6773 22.0066 15.3162 23.5489 16.4533 24.686C17.5904 25.8231 19.1327 26.462 20.7408 26.462C22.3489 26.462 23.8912 25.8231 25.0283 24.686C26.1654 23.5489 26.8042 22.0066 26.8042 20.3985C26.8042 18.7904 26.1654 17.2481 25.0283 16.111C23.8912 14.9739 22.3489 14.3351 20.7408 14.3351ZM10.635 20.3985C10.635 17.7183 11.6998 15.1479 13.595 13.2527C15.4901 11.3575 18.0606 10.2928 20.7408 10.2928C23.421 10.2928 25.9914 11.3575 27.8866 13.2527C29.7818 15.1479 30.8465 17.7183 30.8465 20.3985C30.8465 23.0787 29.7818 25.6492 27.8866 27.5444C25.9914 29.4396 23.421 30.5043 20.7408 30.5043C18.0606 30.5043 15.4901 29.4396 13.595 27.5444C11.6998 25.6492 10.635 23.0787 10.635 20.3985ZM31.8571 12.3139C32.6612 12.3139 33.4323 11.9945 34.0009 11.4259C34.5694 10.8574 34.8888 10.0863 34.8888 9.28219C34.8888 8.47812 34.5694 7.70699 34.0009 7.13843C33.4323 6.56987 32.6612 6.25046 31.8571 6.25046C31.0531 6.25046 30.2819 6.56987 29.7134 7.13843C29.1448 7.70699 28.8254 8.47812 28.8254 9.28219C28.8254 10.0863 29.1448 10.8574 29.7134 11.4259C30.2819 11.9945 31.0531 12.3139 31.8571 12.3139Z" fill="#6BE9E6"/>
</svg>
