<svg width="45" height="37" viewBox="0 0 45 37" fill="none" xmlns="http://www.w3.org/2000/svg">
<path fill-rule="evenodd" clip-rule="evenodd" d="M28.037 4.38661C27.0753 4.38621 26.1255 4.59878 25.2562 5.00897C24.3869 5.41917 23.6197 6.01675 23.01 6.7586C22.4004 7.50044 21.9635 8.36804 21.7309 9.29875C21.4983 10.2295 21.4757 11.2001 21.6649 12.1406C21.73 12.4664 21.7167 12.803 21.626 13.1228C21.5352 13.4425 21.3698 13.7361 21.1431 13.9796C20.9164 14.2231 20.6351 14.4095 20.3221 14.5234C20.0092 14.6373 19.6736 14.6756 19.343 14.6349C14.8165 14.0803 10.5494 12.2244 7.06187 9.29345C7.12713 10.5574 7.56709 11.9012 8.52069 13.308L9.95005 15.416L7.60288 16.4133L7.15028 16.6065C7.4871 16.9907 7.89127 17.3833 8.34387 17.7718C8.9489 18.2883 9.58897 18.7625 10.2595 19.1911L10.2827 19.2058L13.5434 21.1774L10.1332 22.8781C9.96479 22.9621 9.79638 23.0377 9.62797 23.1048C10.3613 23.7126 11.1691 24.2248 12.032 24.6292L14.9581 26.0086L12.5077 28.1167C11.171 29.2673 9.82585 30.126 8.08073 30.5795C10.7572 32.0015 13.7444 32.7422 16.7769 32.7359C26.8939 32.7359 35.0406 24.6838 35.0406 14.8176V13.7258L35.9353 13.098C37.333 12.1196 38.3203 10.7968 39.0276 9.28295H34.4807L33.9081 8.08616C33.3808 6.97896 32.5495 6.04363 31.5106 5.38878C30.4718 4.73393 29.268 4.38643 28.0391 4.38661H28.037ZM4.29157 19.7139C4.09292 19.9408 3.94556 20.2077 3.85947 20.4965C3.77339 20.7852 3.7506 21.089 3.79267 21.3873C4.03054 23.0692 5.03888 24.5179 6.15458 25.6244C6.45771 25.9247 6.78189 26.2123 7.12292 26.4874L6.96503 26.5294C5.95249 26.7813 4.58628 26.8338 2.31068 26.6133C1.88095 26.5713 1.44864 26.662 1.07237 26.8733C0.696106 27.0846 0.394082 27.4062 0.207252 27.7945C0.0204217 28.1827 -0.0421766 28.6189 0.0279441 29.0439C0.0980648 29.4689 0.297512 29.862 0.599245 30.1701C2.70596 32.3179 5.22264 34.023 8.00078 35.1849C10.7789 36.3468 13.7623 36.9419 16.7747 36.9351C28.8011 36.9351 38.6656 27.6212 39.2234 15.8674C41.939 13.5935 43.2968 10.5133 44.0293 7.71453C44.1108 7.40389 44.1197 7.07875 44.0554 6.76413C43.9912 6.44951 43.8554 6.15378 43.6586 5.89969C43.4618 5.6456 43.2092 5.43991 42.9202 5.29845C42.6312 5.15698 42.3135 5.08351 41.9916 5.08368H37.0383C35.8267 3.20729 34.0562 1.75669 31.9754 0.935715C29.8946 0.114743 27.6082 -0.0353337 25.4375 0.506573C23.2668 1.04848 21.3209 2.25513 19.8732 3.95697C18.4255 5.65881 17.5488 7.7703 17.3663 9.99473C13.4859 8.98722 10.0139 6.80498 7.42815 3.74832C7.19916 3.47827 6.90548 3.27029 6.57437 3.14369C6.24326 3.01708 5.88545 2.97596 5.53415 3.02413C5.18285 3.0723 4.84944 3.20821 4.56486 3.41923C4.28029 3.63026 4.05377 3.90956 3.90634 4.23123C2.63066 7.00695 2.38647 10.2068 3.80951 13.4612L3.31691 13.6712C2.84553 13.8715 2.46359 14.2365 2.24269 14.6976C2.0218 15.1587 1.97711 15.6844 2.11701 16.1761C2.50856 17.545 3.39059 18.7544 4.29157 19.7139Z" fill="#6BE9E6"/>
</svg>
