<svg width="48" height="41" viewBox="0 0 48 41" fill="none" xmlns="http://www.w3.org/2000/svg">
<path fill-rule="evenodd" clip-rule="evenodd" d="M14.8721 5.02673C20.5008 4.24591 27.289 4.24591 32.9176 5.02673C38.0315 5.73734 41.9946 9.25211 42.7503 13.0392C43.6688 17.6241 43.6688 23.1729 42.7503 27.7578C41.9924 31.5449 38.0315 35.0597 32.9176 35.7703C27.289 36.5511 20.4986 36.5511 14.8721 35.7703C9.75819 35.0597 5.79731 31.5449 5.03944 27.7578C4.12089 23.1729 4.12089 17.6241 5.03944 13.0392C5.79731 9.25211 9.75819 5.73734 14.8721 5.02673ZM33.5256 0.814117C27.4953 -0.0220233 20.2945 -0.0220233 14.2641 0.814117C7.71694 1.72259 1.96238 6.29902 0.778896 12.2222C-0.248239 17.3476 -0.248239 23.4495 0.778896 28.5748C1.96238 34.498 7.71694 39.0744 14.2641 39.9829C20.2945 40.819 27.4953 40.819 33.5256 39.9829C40.0728 39.0744 45.8274 34.498 47.0108 28.5748C48.038 23.4495 48.038 17.3476 47.0108 12.2222C45.8274 6.29902 40.0728 1.72259 33.5256 0.814117ZM20.757 10.118C20.43 9.90426 20.0498 9.78148 19.6572 9.76279C19.2645 9.7441 18.874 9.83021 18.5273 10.0119C18.1807 10.1936 17.8909 10.4641 17.6889 10.7946C17.4869 11.125 17.3802 11.503 17.3803 11.8882V28.9088C17.3802 29.294 17.4869 29.672 17.6889 30.0024C17.8909 30.3329 18.1807 30.6034 18.5273 30.7851C18.874 30.9668 19.2645 31.0529 19.6572 31.0342C20.0498 31.0156 20.43 30.8928 20.757 30.679L33.7862 22.1687C34.0836 21.9744 34.3275 21.7111 34.4961 21.4023C34.6648 21.0936 34.753 20.7487 34.753 20.3985C34.753 20.0483 34.6648 19.7035 34.4961 19.3947C34.3275 19.0859 34.0836 18.8227 33.7862 18.6284L20.757 10.118ZM28.6657 20.3985L21.7233 24.9345V15.8646L28.6657 20.3985Z" fill="#6BE9E6"/>
</svg>
